<?xml version="1.0" encoding="UTF-8" standalone="no"?>
<!-- Created with Inkscape (http://www.inkscape.org/) -->

<svg
   xmlns:dc="http://purl.org/dc/elements/1.1/"
   xmlns:cc="http://creativecommons.org/ns#"
   xmlns:rdf="http://www.w3.org/1999/02/22-rdf-syntax-ns#"
   xmlns:svg="http://www.w3.org/2000/svg"
   xmlns="http://www.w3.org/2000/svg"
   version="1.1"
   width="32"
   height="24"
   id="svg3049">
  <metadata
     id="metadata3055">
    <rdf:RDF>
      <cc:Work
         rdf:about="">
        <dc:format>image/svg+xml</dc:format>
        <dc:type
           rdf:resource="http://purl.org/dc/dcmitype/StillImage" />
        <dc:title></dc:title>
      </cc:Work>
    </rdf:RDF>
  </metadata>
  <defs
     id="defs3053">
    <linearGradient
       id="linearGradient5297">
      <stop
         id="stop5299"
         style="stop-color:#000000;stop-opacity:1"
         offset="0" />
    </linearGradient>
  </defs>
  <g
     transform="matrix(0.99592281,0,0,1,31.934765,-2)"
     id="g3059">
    <g
       transform="translate(-36,-6)"
       id="g5303">
      <path
         d="M 4,20 4,8 20,8 36,8 36,20 36,32 20,32 4,32 4,20 z m 23.87175,5.405083 c -3.259339,-3.259339 -3.794533,-3.470254 -5.733333,-2.259453 -1.78372,1.113951 -2.493114,1.113951 -4.276834,0 -1.9388,-1.210801 -2.473994,-0.999886 -5.733333,2.259453 L 8.5333333,29 20,29 31.466667,29 27.87175,25.405083 z M 10.733333,16.266667 7,12.533333 7,20 7,27.466667 10.733333,23.733333 14.466667,20 10.733333,16.266667 z m 22.266667,3.5 0,-7.233334 -3.71446,3.71446 -3.71446,3.71446 3.410627,3.518873 C 30.857552,25.416507 32.529059,27 32.696167,27 32.863275,27 33,23.745 33,19.766667 z M 26.5,16 32.437393,10 20,10 7.562607,10 13.5,16 c 3.265566,3.3 6.190566,6 6.5,6 0.309434,0 3.234434,-2.7 6.5,-6 z"
         id="path3073"
         style="fill:#e3e3e3" />
      <path
         d="M 4.69168,31.358347 C 4.311256,30.977923 4,25.566667 4,19.333333 L 4,8 20.031735,8 36.063471,8 35.781735,19.75 35.5,31.5 20.44168,31.775013 c -8.282076,0.151258 -15.369576,-0.03624 -15.75,-0.416666 z m 23.18007,-5.953264 c -3.259339,-3.259339 -3.794533,-3.470254 -5.733333,-2.259453 -1.78372,1.113951 -2.493114,1.113951 -4.276834,0 -1.9388,-1.210801 -2.473994,-0.999886 -5.733333,2.259453 L 8.5333333,29 20,29 31.466667,29 27.87175,25.405083 z M 10.235294,15.764706 6,11.529412 6,20 6,28.470588 10.235294,24.235294 14.470588,20 10.235294,15.764706 z m 23.764706,4 0,-8.235294 -4.218928,4.218928 -4.218929,4.218929 3.921876,4.016365 C 31.641051,26.192635 33.539569,28 33.702948,28 33.866326,28 34,24.294118 34,19.764706 z M 26.5,16 32.437393,10 20,10 7.562607,10 13.5,16 c 3.265566,3.3 6.190566,6 6.5,6 0.309434,0 3.234434,-2.7 6.5,-6 z"
         id="path3071"
         style="fill:#cfcfcf" />
      <path
         d="M 4.2172489,19.75 4.5,8.5 20,8.5 35.5,8.5 35.782751,19.75 36.065502,31 20,31 3.9344978,31 4.2172489,19.75 z m 24.1483951,6.145055 c -3.597874,-3.597874 -4.3681,-3.964108 -6.235295,-2.964816 -1.594787,0.853505 -2.665911,0.853505 -4.260698,0 -1.867195,-0.999292 -2.637421,-0.633058 -6.235295,2.964816 L 7.5294118,30 20,30 32.470588,30 28.365644,25.895055 z M 10.235294,15.764706 6,11.529412 6,20 6,28.470588 10.235294,24.235294 14.470588,20 10.235294,15.764706 z m 23.764706,4 0,-8.235294 -4.218928,4.218928 -4.218929,4.218929 3.921876,4.016365 C 31.641051,26.192635 33.539569,28 33.702948,28 33.866326,28 34,24.294118 34,19.764706 z M 26.5,16 32.437393,10 20,10 7.562607,10 13.5,16 c 3.265566,3.3 6.190566,6 6.5,6 0.309434,0 3.234434,-2.7 6.5,-6 z"
         id="path3069"
         style="fill:#ababab" />
      <path
         d="M 4.2172489,19.75 4.5,8.5 20,8.5 35.5,8.5 35.782751,19.75 36.065502,31 20,31 3.9344978,31 4.2172489,19.75 z M 32,29.292163 c 0,-0.389311 -1.636871,-2.384145 -3.637491,-4.432966 -3.475931,-3.559677 -3.742421,-3.656375 -6,-2.177153 -2.13255,1.397301 -2.592468,1.397301 -4.725018,0 -2.257579,-1.479222 -2.524069,-1.382524 -6,2.177153 C 9.6368707,26.908018 8,28.902852 8,29.292163 8,29.681473 13.4,30 20,30 26.6,30 32,29.681473 32,29.292163 z M 10.235294,15.764706 6,11.529412 6,20 6,28.470588 10.235294,24.235294 14.470588,20 10.235294,15.764706 z m 23.764706,4 0,-8.235294 -4.218928,4.218928 -4.218929,4.218929 3.921876,4.016365 C 31.641051,26.192635 33.539569,28 33.702948,28 33.866326,28 34,24.294118 34,19.764706 z M 26.5,16 32.437393,10 20,10 7.562607,10 13.5,16 c 3.265566,3.3 6.190566,6 6.5,6 0.309434,0 3.234434,-2.7 6.5,-6 z"
         id="path3067"
         style="fill:#9d9d9d" />
      <path
         d="M 5,20 5,9 20,9 35,9 35,20 35,31 20,31 5,31 5,20 z m 27,9.202948 c 0,-0.438379 -1.703716,-2.460687 -3.786036,-4.494017 -3.585237,-3.500891 -3.903456,-3.61472 -6,-2.146244 -2.000152,1.400961 -2.427776,1.400961 -4.427928,0 -2.096544,-1.468476 -2.414763,-1.354647 -6,2.146244 C 9.703716,26.742261 8,28.764569 8,29.202948 8,29.641326 13.4,30 20,30 26.6,30 32,29.641326 32,29.202948 z M 10.235294,15.764706 6,11.529412 6,20 6,28.470588 10.235294,24.235294 14.470588,20 10.235294,15.764706 z m 23.764706,4 0,-8.235294 -4.218928,4.218928 -4.218929,4.218929 3.921876,4.016365 C 31.641051,26.192635 33.539569,28 33.702948,28 33.866326,28 34,24.294118 34,19.764706 z M 26.5,16 32.437393,10 20,10 7.562607,10 13.5,16 c 3.265566,3.3 6.190566,6 6.5,6 0.309434,0 3.234434,-2.7 6.5,-6 z"
         id="path3065"
         style="fill:#8b8b8b" />
      <path
         d="M 5,20 5,9 20,9 35,9 35,20 35,31 20,31 5,31 5,20 z m 23.779811,5.306126 c -4.617136,-4.617135 -4.727273,-4.663647 -6.736842,-2.845012 -1.9873,1.798481 -2.098638,1.798481 -4.085938,0 -2.009569,-1.818635 -2.119706,-1.772123 -6.736842,2.845012 L 6.5263158,30 20,30 33.473684,30 28.779811,25.306126 z M 11.296867,15.791973 C 9.2603478,13.706388 7.235431,12 6.7970522,12 6.3586735,12 6,15.693694 6,20.208208 l 0,8.208208 4.499815,-4.416235 4.499815,-4.416234 -3.702763,-3.791974 z m 22.229044,-3.599395 c -0.309443,-0.309443 -2.356438,1.188989 -4.548878,3.329849 l -3.986255,3.892473 4.254611,4.340862 4.254611,4.340861 0.294268,-7.67071 c 0.161847,-4.218891 0.04109,-7.923892 -0.268357,-8.233335 z M 27.5,16 33.437393,10 20,10 6.562607,10 12.5,16 c 3.265566,3.3 6.640566,6 7.5,6 0.859434,0 4.234434,-2.7 7.5,-6 z"
         id="path3063"
         style="fill:#6a6a6a" />
      <path
         d="M 5,20 5,9 20,9 35,9 35,20 35,31 20,31 5,31 5,20 z m 28.5,0 0,-9.5 -13.5,0 -13.5,0 -0.2931311,8.416411 c -0.1612221,4.629025 -0.057809,9.02965 0.2298072,9.779165 0.4127528,1.075617 3.3190259,1.303934 13.7931309,1.08359 L 33.5,29.5 33.5,20 z M 10.958208,24.75 15.416416,20 10.962538,15.25 c -3.4003008,-3.626374 -3.0287261,-3.389821 1.570789,1 C 15.846894,19.4125 19.206897,22 20,22 c 0.793103,0 4.153106,-2.5875 7.466673,-5.75 4.599515,-4.389821 4.97109,-4.626374 1.570789,-1 L 24.583584,20 29.041792,24.75 33.5,29.5 28.874372,25.163854 c -4.206661,-3.943399 -4.818042,-4.21598 -6.75,-3.009453 -1.764993,1.102257 -2.483751,1.102257 -4.248744,0 -1.931958,-1.206527 -2.543339,-0.933946 -6.75,3.009453 L 6.5,29.5 10.958208,24.75 z"
         id="path3061"
         style="fill:#151515" />
    </g>
  </g>
</svg>
